<svg viewBox="0 0 618 545" xmlns="http://www.w3.org/2000/svg" aria-hidden="true">
<rect width="475.86" height="545" fill="#666666"/>
<path d="M476.01 43.64L465.37 45.79L454.76 48.15L444.21 50.71L433.70 53.47L423.25 56.43L412.86 59.59L402.53 62.95L392.26 66.51L382.07 70.26L371.95 74.21L361.90 78.34L351.94 82.68L342.07 87.20L332.28 91.90L322.58 96.80L312.98 101.88L303.47 107.14L294.07 112.58L284.78 118.21L275.59 124.01L266.52 129.98L257.57 136.13L248.73 142.44L240.01 148.93L231.42 155.58L222.96 162.39L214.64 169.36L206.44 176.49L198.39 183.78L190.47 191.22L182.70 198.81L175.08 206.55L167.60 214.43L160.28 222.45L153.11 230.61L146.10 238.91L139.25 247.34L132.56 255.90L126.04 264.59L119.68 273.40L119.68 271.60L126.04 280.41L132.56 289.10L139.25 297.66L146.10 306.09L153.11 314.39L160.28 322.55L167.60 330.57L175.08 338.45L182.70 346.19L190.47 353.78L198.39 361.22L206.44 368.51L214.64 375.64L222.96 382.61L231.42 389.42L240.01 396.07L248.73 402.56L257.57 408.87L266.52 415.02L275.59 420.99L284.78 426.79L294.07 432.42L303.47 437.86L312.98 443.12L322.58 448.20L332.28 453.10L342.07 457.80L351.94 462.32L361.90 466.66L371.95 470.79L382.07 474.74L392.26 478.49L402.53 482.05L412.86 485.41L423.25 488.57L433.70 491.53L444.21 494.29L454.76 496.85L465.37 499.21L476.01 501.36Z" fill="#FFFFFF"/>
<circle cx="477.10" cy="271.95" r="140.29" fill="#4682B4"/>
</svg>
